# xmcd CD database file generated by Grip 2.94
# 
# Track frame offsets:
#       150
#       20010
#       39035
#       57553
#       79205
#       97058
#       117178
#       141788
#       161935
# 
# Disc length: 2495 seconds
# 
# Revision: 3
# Processed by: cddbd v1.4b41PL1 Copyright (c) Steve Scherf et al.
# Submitted via: Grip 2.94
# 
DISCID=7809bd09
DTITLE=Richie Havens - Simple Things
DYEAR=1900
DGENRE=
TTITLE0=Drivin'
TTITLE1=Simple Things
TTITLE2=Songwriter
TTITLE3=Passin' By
TTITLE4=Wake Up And Dream
TTITLE5=I Don't Wanna Know
TTITLE6=Shouldn't We All Be Having A Good Time
TTITLE7=Arrow Through Me
TTITLE8=Runner In The Night
EXTD=
EXTT0=
EXTT1=
EXTT2=
EXTT3=
EXTT4=
EXTT5=
EXTT6=
EXTT7=
EXTT8=
PLAYORDER=
